<svg xmlns="http://www.w3.org/2000/svg" viewBox="0 0 100 100" fill="none">
  <!-- MauKirim brand mark, light theme: dark ink for a light surface. -->
  <defs>
    <linearGradient id="mk-leaf-light" x1="28" y1="12" x2="68" y2="38" gradientUnits="userSpaceOnUse">
      <stop offset="0%" stop-color="#2e5a4b" />
      <stop offset="100%" stop-color="#3d7262" />
    </linearGradient>
  </defs>
  <path
    d="M 68 28 C 52 28, 22 40, 22 66 C 22 84, 38 90, 56 90 C 74 90, 84 76, 84 62 C 84 52, 79 46, 75 42 C 78 52, 75 74, 55 76 C 36 78, 32 58, 48 40 C 56 32, 62 30, 68 28 Z"
    fill="#182822"
  />
  <path d="M 40 32 C 32 18, 52 8, 74 12 C 78 22, 70 36, 40 32 Z" fill="url(#mk-leaf-light)" />
  <path d="M 38 34 Q 56 22 74 12" stroke="#f7f6f1" stroke-width="2" stroke-linecap="round" />
  <circle cx="58" cy="58" r="4.5" fill="#2e5a4b" />
</svg>
